<?xml version="1.0" encoding="utf-8"?>
<!-- Generator: Adobe Illustrator 22.0.0, SVG Export Plug-In . SVG Version: 6.00 Build 0)  -->
<svg version="1.1" id="Layer_1" xmlns="http://www.w3.org/2000/svg" xmlns:xlink="http://www.w3.org/1999/xlink" x="0px" y="0px"
	 viewBox="0 0 14.8 14.8" style="enable-background:new 0 0 14.8 14.8;" xml:space="preserve">
<style type="text/css">
	.st0{fill:#A7A9AC;}
</style>
<g>
	<g>
		<g>
			<path class="st0" d="M2.6,9.8c0,0.6,0.5,1.1,1.1,1.1s1.1-0.5,1.1-1.1c0-0.6-0.5-1.1-1.1-1.1S2.6,9.1,2.6,9.8z M3.1,9.8
				c0-0.4,0.3-0.7,0.7-0.7s0.7,0.3,0.7,0.7c0,0.4-0.3,0.7-0.7,0.7S3.1,10.1,3.1,9.8z"/>
		</g>
	</g>
	<g>
		<g>
			<path class="st0" d="M10.2,9.8c0,0.6,0.5,1.1,1.1,1.1s1.1-0.5,1.1-1.1c0-0.6-0.5-1.1-1.1-1.1S10.2,9.1,10.2,9.8z M10.6,9.8
				c0-0.4,0.3-0.7,0.7-0.7c0.4,0,0.7,0.3,0.7,0.7c0,0.4-0.3,0.7-0.7,0.7C10.9,10.4,10.6,10.1,10.6,9.8z"/>
		</g>
	</g>
	<g>
		<g>
			<path class="st0" d="M0.9,8.8v0.9c0,0.1,0.1,0.2,0.2,0.2H2c0.1,0,0.2-0.1,0.2-0.2c0-0.9,0.7-1.6,1.6-1.6s1.6,0.7,1.6,1.6
				c0,0.1,0.1,0.2,0.2,0.2h4c0.1,0,0.2-0.1,0.2-0.2c0-0.9,0.7-1.6,1.6-1.6s1.6,0.7,1.6,1.6c0,0.1,0.1,0.2,0.2,0.2H14
				c0.1,0,0.2-0.1,0.2-0.2V8.8c0-0.1-0.1-0.2-0.2-0.2V8c0-0.8-1.5-1.3-3-1.3C9.7,5.1,7.7,4.5,5.1,4.9l0,0C3.6,5.1,3,5.9,2.5,6.7
				L1.2,7.1c-0.1,0-0.2,0.1-0.2,0.2v1.3C1,8.7,0.9,8.7,0.9,8.8z M1.5,7.7V7.5l1.1-0.4l0.4-0.5C3.3,6.3,3.6,6,4,5.7l0.5-0.2
				c0.2-0.1,0.5-0.2,0.7-0.2c0.5-0.1,1.1-0.1,1.5-0.1h0.5c1.4,0.1,2.5,0.6,3.3,1.4l0.5,0.5c1.3,0,2.3,0.3,2.6,0.7l0.1,0.5v0.7
				c0,0.1,0.1,0.2,0.2,0.2v0.5h-0.5c-0.1-1-0.9-1.8-2-1.8s-1.9,0.8-2,1.8H5.8c-0.1-1-0.9-1.8-2-1.8s-1.9,0.8-2,1.8H1.3V9.1
				c0.1,0,0.2-0.1,0.2-0.2V8.2C1.5,8.2,1.5,7.7,1.5,7.7z"/>
		</g>
	</g>
</g>
</svg>
