<?xml version="1.0" encoding="utf-8"?>
<!-- Generator: Adobe Illustrator 22.0.0, SVG Export Plug-In . SVG Version: 6.00 Build 0)  -->
<svg version="1.1" id="Layer_1" xmlns="http://www.w3.org/2000/svg" xmlns:xlink="http://www.w3.org/1999/xlink" x="0px" y="0px"
	 viewBox="0 0 512 512" style="enable-background:new 0 0 512 512;" xml:space="preserve">
<style type="text/css">
	.st0{fill:#FFFFFF;}
</style>
<title></title>
<g id="icomoon-ignore">
</g>
<path class="st0" d="M137.7,455H48.6c-6.6,0-12-5.4-12-12V78.7c0-6.6,5.4-12,12-12h89.1c6.6,0,12,5.4,12,12V443
	C149.7,449.6,144.3,455,137.7,455z"/>
<path class="st0" d="M301.8,455h-89.1c-6.6,0-12-5.4-12-12V78.7c0-6.6,5.4-12,12-12h89.1c6.6,0,12,5.4,12,12V443
	C313.8,449.6,308.4,455,301.8,455z"/>
<path class="st0" d="M465.9,455h-89.1c-6.6,0-12-5.4-12-12V78.7c0-6.6,5.4-12,12-12h89.1c6.6,0,12,5.4,12,12V443
	C477.9,449.6,472.5,455,465.9,455z"/>
</svg>
