<?xml version="1.0" encoding="utf-8"?>
<!-- Generator: Adobe Illustrator 22.0.0, SVG Export Plug-In . SVG Version: 6.00 Build 0)  -->
<svg version="1.1" id="Layer_1" xmlns="http://www.w3.org/2000/svg" xmlns:xlink="http://www.w3.org/1999/xlink" x="0px" y="0px"
	 viewBox="0 0 35.2 16.1" style="enable-background:new 0 0 35.2 16.1;" xml:space="preserve">
<style type="text/css">
	.st0{fill:#A7A9AC;}
</style>
<g>
	<g>
		<g>
			<path class="st0" d="M4.7,13.2c0,1.6,1.3,2.9,2.9,2.9c1.6,0,2.9-1.3,2.9-2.9c0-1.6-1.3-2.9-2.9-2.9S4.7,11.6,4.7,13.2z M5.9,13.2
				c0-1,0.8-1.8,1.8-1.8s1.8,0.8,1.8,1.8s-0.8,1.8-1.8,1.8S5.9,14.2,5.9,13.2z"/>
		</g>
	</g>
	<g>
		<g>
			<path class="st0" d="M24.7,13.2c0,1.6,1.3,2.9,2.9,2.9c1.6,0,2.9-1.3,2.9-2.9c0-1.6-1.3-2.9-2.9-2.9C26,10.3,24.7,11.6,24.7,13.2
				z M25.8,13.2c0-1,0.8-1.8,1.8-1.8c1,0,1.8,0.8,1.8,1.8s-0.8,1.8-1.8,1.8C26.6,14.9,25.8,14.2,25.8,13.2z"/>
		</g>
	</g>
	<g>
		<g>
			<path class="st0" d="M0,10.8l0,2.3c0,0.3,0.3,0.6,0.6,0.6h2.3c0.3,0,0.6-0.3,0.6-0.6c0-2.3,1.8-4.1,4.1-4.1
				c2.3,0,4.1,1.8,4.1,4.1c0,0.3,0.3,0.6,0.6,0.6h10.6c0.3,0,0.6-0.3,0.6-0.6c0-2.3,1.8-4.1,4.1-4.1s4.1,1.8,4.1,4.1
				c0,0.3,0.3,0.6,0.6,0.6h2.3c0.3,0,0.6-0.3,0.6-0.6v-2.3c0-0.3-0.3-0.6-0.6-0.6V8.5c0-2.2-4-3.5-7.9-3.5
				c-3.4-4.1-8.6-5.7-15.6-4.7c0,0,0,0,0,0C7.3,0.9,5.5,3,4.3,5.1L1,6.2C0.7,6.3,0.6,6.5,0.6,6.7v3.5C0.3,10.3,0,10.5,0,10.8z
				 M1.8,7.9V7.2l3-1l1-1.2c0.7-1,1.4-1.8,2.4-2.4L9.4,2c0.6-0.2,1.2-0.4,1.9-0.5c1.4-0.2,2.8-0.3,4-0.3l1.2,0
				c3.6,0.3,6.5,1.5,8.7,3.7l1.3,1.2c3.5,0,6,0.9,6.8,1.8l0.3,1.2v1.8c0,0.3,0.3,0.6,0.6,0.6v1.2h-1.2c-0.3-2.6-2.5-4.7-5.3-4.7
				s-5,2.1-5.3,4.7h-9.5c-0.3-2.6-2.5-4.7-5.3-4.7s-5,2.1-5.3,4.7H1.2v-1.2c0.3,0,0.6-0.3,0.6-0.6V9.1V7.9z"/>
		</g>
	</g>
</g>
</svg>
