<!-- Generated by IcoMoon.io -->
<svg version="1.1" xmlns="http://www.w3.org/2000/svg" width="768" height="768" viewBox="0 0 768 768">
<title></title>
<g id="icomoon-ignore">
</g>
<path fill="#999" d="M511.5 544.5v-192c0-79.5-48-144-127.5-144s-127.5 64.5-127.5 144v192h255zM576 511.5l64.5 64.5v31.5h-513v-31.5l64.5-64.5v-159c0-99 52.5-180 144-202.5v-22.5c0-27 21-48 48-48s48 21 48 48v22.5c91.5 22.5 144 105 144 202.5v159zM384 703.5c-34.5 0-64.5-28.5-64.5-63h129c0 34.5-30 63-64.5 63z"></path>
</svg>
