<?xml version="1.0" encoding="utf-8"?>
<!-- Generator: Adobe Illustrator 22.0.0, SVG Export Plug-In . SVG Version: 6.00 Build 0)  -->
<svg version="1.1" id="Layer_1" xmlns="http://www.w3.org/2000/svg" xmlns:xlink="http://www.w3.org/1999/xlink" x="0px" y="0px"
	 viewBox="0 0 23.3 23.4" style="enable-background:new 0 0 23.3 23.4;" xml:space="preserve">
<style type="text/css">
	.st0{fill:#A7A8AB;}
</style>
<path class="st0" d="M19.6,14c-0.5-0.5-1.1-0.8-1.8-0.8c-0.6,0-1.3,0.3-1.8,0.8l-1.7,1.7c-0.1-0.1-0.3-0.1-0.4-0.2
	c-0.2-0.1-0.4-0.2-0.5-0.3c-1.6-1-3-2.3-4.3-3.9C8.5,10.4,8.1,9.7,7.7,9C8.2,8.6,8.6,8.2,9,7.8c0.1-0.1,0.3-0.3,0.4-0.4
	c1.1-1.1,1.1-2.5,0-3.6L8,2.2C7.8,2.1,7.6,1.9,7.5,1.7c-0.3-0.3-0.6-0.7-1-1C6,0.3,5.4,0,4.7,0S3.5,0.3,3,0.8c0,0,0,0,0,0L1.2,2.6
	C0.5,3.3,0.1,4.1,0,5c-0.1,1.5,0.3,3,0.7,3.9c0.9,2.3,2.1,4.4,4,6.7c2.3,2.7,5.1,4.9,8.2,6.4c1.2,0.6,2.8,1.2,4.6,1.4
	c0.1,0,0.2,0,0.3,0c1.2,0,2.2-0.4,3-1.3c0,0,0,0,0,0c0.3-0.3,0.6-0.6,0.9-1c0.2-0.2,0.5-0.4,0.7-0.7c0.5-0.5,0.8-1.2,0.8-1.8
	c0-0.7-0.3-1.3-0.8-1.8L19.6,14z M21.5,19.5C21.5,19.5,21.5,19.5,21.5,19.5c-0.2,0.2-0.4,0.4-0.6,0.6c-0.3,0.3-0.7,0.7-1,1
	c-0.5,0.6-1.2,0.8-2,0.8c-0.1,0-0.2,0-0.2,0c-1.6-0.1-3-0.7-4.1-1.2c-3-1.4-5.6-3.5-7.7-6.1C4,12.6,2.8,10.6,2,8.4
	C1.5,7.1,1.4,6.1,1.4,5.1C1.5,4.5,1.7,4,2.2,3.6L4,1.8c0.3-0.2,0.5-0.4,0.8-0.4c0.3,0,0.6,0.2,0.8,0.4c0,0,0,0,0,0
	c0.3,0.3,0.6,0.6,0.9,0.9C6.6,2.9,6.8,3.1,7,3.2l1.4,1.4C9,5.2,9,5.8,8.4,6.3C8.3,6.5,8.1,6.6,8,6.8C7.5,7.2,7.1,7.6,6.6,8
	c0,0,0,0,0,0C6.2,8.5,6.2,9,6.3,9.3c0,0,0,0,0,0c0.4,0.9,0.9,1.8,1.7,2.8l0,0c1.4,1.8,3,3.2,4.7,4.2c0.2,0.1,0.4,0.2,0.6,0.4
	c0.2,0.1,0.4,0.2,0.5,0.3c0,0,0,0,0.1,0c0.2,0.1,0.3,0.1,0.5,0.1c0.4,0,0.7-0.3,0.8-0.4l1.8-1.8c0.2-0.2,0.5-0.4,0.8-0.4
	c0.3,0,0.6,0.2,0.8,0.4c0,0,0,0,0,0l2.9,2.9C22.1,18.4,22.1,18.9,21.5,19.5z"/>
</svg>
