<!-- Generated by IcoMoon.io -->
<svg version="1.1" xmlns="http://www.w3.org/2000/svg" width="1024" height="1024" viewBox="0 0 1024 1024">
<title></title>
<g id="icomoon-ignore">
</g>
<path fill="#000" d="M528 782.304v-31.872c107.264 3.168 191.776 37.568 191.776 79.584 0 44.128-92.992 81.92-207.744 81.92s-207.744-37.792-207.744-81.92c0-42.016 84.512-76.448 191.744-79.584v31.872c-89.568 2.208-159.776 22.72-159.776 47.712 0 26.464 78.688 51.936 175.776 51.936 97.056 0 175.744-25.472 175.744-51.936-0.032-24.992-70.208-45.472-159.776-47.712zM336.512 287.84c0-97.056 80.672-175.776 177.792-175.776 97.088 0 175.776 78.72 175.776 175.776 0 83.424-58.176 153.152-136.192 171.136l-41.888 423.008-42.016-424.192c-75.584-19.68-133.472-88.192-133.472-169.952zM512 240.768c0-26.496-21.472-47.936-47.936-47.936-26.496 0-47.968 21.44-47.968 47.936 0 26.464 21.472 47.936 47.968 47.936s47.936-21.44 47.936-47.936z"></path>
</svg>
