<!-- Generated by IcoMoon.io -->
<svg version="1.1" xmlns="http://www.w3.org/2000/svg" width="640" height="640" viewBox="0 0 640 640">
<title></title>
<g id="icomoon-ignore">
</g>
<path fill="#0047b3" d="M384 320c-0.153 35.231-28.748 63.731-63.999 63.731-17.606 0-33.553-7.109-45.124-18.614l0.003 0.003c-11.502-11.568-18.611-27.514-18.611-45.121 0-35.252 28.501-63.847 63.717-63.999h0.014v-256c0.286-0.001 0.623-0.001 0.961-0.001 176.201 0 319.040 142.839 319.040 319.040 0 0.338-0.001 0.676-0.002 1.013v-0.052h-256zM636.8 365.12c-22.879 156.257-155.988 274.884-316.804 274.884-176.731 0-320-143.269-320-320 0-160.816 118.626-293.924 273.147-316.594l1.736-0.209v64.96c-120.563 22.273-210.676 126.591-210.676 251.956 0 141.385 114.615 256 256 256 125.364 0 229.682-90.112 251.713-209.098l0.242-1.578h64.64zM506.56 365.12c-21.168 84.751-96.639 146.541-186.541 146.541-106.039 0-192-85.961-192-192 0-89.902 61.789-165.373 145.218-186.26l1.323-0.281v67.2c-48.721 18.727-82.672 65.141-82.672 119.484 0 35.494 14.483 67.604 37.861 90.746l0.011 0.011c23.135 22.994 55.020 37.206 90.224 37.206 54.392 0 100.861-33.926 119.398-81.772l0.298-0.874h67.2z"></path>
</svg>
