<?xml version="1.0" encoding="utf-8"?>
<!-- Generator: Adobe Illustrator 22.0.0, SVG Export Plug-In . SVG Version: 6.00 Build 0)  -->
<svg version="1.1" id="Layer_1" xmlns="http://www.w3.org/2000/svg" xmlns:xlink="http://www.w3.org/1999/xlink" x="0px" y="0px"
	 viewBox="0 0 26.6 23.7" style="enable-background:new 0 0 26.6 23.7;" xml:space="preserve">
<style type="text/css">
	.st0{fill:#A6A8AB;}
</style>
<g>
	<g>
		<g>
			<path class="st0" d="M26.3,9.4L13.7,0.1c-0.2-0.2-0.6-0.2-0.8,0L0.3,9.4C0,9.6-0.1,10,0.1,10.3s0.7,0.4,1,0.1l12.2-8.9l12.2,8.9
				c0.1,0.1,0.3,0.1,0.4,0.1c0.2,0,0.4-0.1,0.6-0.3C26.7,10,26.6,9.6,26.3,9.4z"/>
		</g>
	</g>
	<g>
		<g>
			<path class="st0" d="M23,10.6c-0.4,0-0.7,0.3-0.7,0.7v11h-5.5v-6c0-1.9-1.5-3.5-3.5-3.5s-3.5,1.5-3.5,3.5v6H4.3v-11
				c0-0.4-0.3-0.7-0.7-0.7s-0.7,0.3-0.7,0.7V23c0,0.4,0.3,0.7,0.7,0.7h6.9c0.4,0,0.7-0.3,0.7-0.6c0,0,0,0,0-0.1v-6.7
				c0-1.1,0.9-2.1,2.1-2.1s2.1,0.9,2.1,2.1V23c0,0,0,0,0,0.1c0,0.4,0.3,0.6,0.7,0.6H23c0.4,0,0.7-0.3,0.7-0.7V11.3
				C23.7,10.9,23.3,10.6,23,10.6z"/>
		</g>
	</g>
</g>
</svg>
