<?xml version="1.0" encoding="utf-8"?>
<!-- Generator: Adobe Illustrator 22.0.0, SVG Export Plug-In . SVG Version: 6.00 Build 0)  -->
<svg version="1.1" id="Layer_1" xmlns="http://www.w3.org/2000/svg" xmlns:xlink="http://www.w3.org/1999/xlink" x="0px" y="0px"
	 viewBox="0 0 14.8 14.8" style="enable-background:new 0 0 14.8 14.8;" xml:space="preserve">
<style type="text/css">
	.st0{fill:#EE3445;}
	.st1{fill:#FFFFFF;}
</style>
<g>
	<circle class="st0" cx="7.4" cy="7.4" r="7.4"/>
	<g>
		<path class="st1" d="M2.3,8.7c0.3,0.2,0.6,0.3,1,0.3c0.6,0,0.9-0.3,0.9-0.8c0-0.4-0.2-0.7-0.8-0.9C2.6,7,2.2,6.7,2.2,6
			c0-0.7,0.6-1.2,1.5-1.2c0.5,0,0.8,0.1,1,0.2L4.5,5.5C4.3,5.4,4,5.3,3.6,5.3C3,5.3,2.8,5.6,2.8,6c0,0.4,0.3,0.6,0.9,0.9
			c0.8,0.3,1.1,0.7,1.1,1.3c0,0.7-0.5,1.3-1.6,1.3c-0.4,0-0.9-0.1-1.1-0.3L2.3,8.7z"/>
		<path class="st1" d="M9.5,7.1c0,1.5-0.9,2.4-2.1,2.4c-1.2,0-2-0.9-2-2.3c0-1.4,0.9-2.4,2.1-2.4C8.7,4.8,9.5,5.7,9.5,7.1z M6,7.1
			C6,8.1,6.5,9,7.4,9c0.9,0,1.4-0.8,1.4-1.9c0-0.9-0.5-1.8-1.4-1.8C6.4,5.3,6,6.2,6,7.1z"/>
		<path class="st1" d="M10.1,8.7c0.3,0.2,0.6,0.3,1,0.3c0.6,0,0.9-0.3,0.9-0.8c0-0.4-0.2-0.7-0.8-0.9C10.5,7,10.1,6.7,10.1,6
			c0-0.7,0.6-1.2,1.5-1.2c0.5,0,0.8,0.1,1,0.2l-0.2,0.5c-0.1-0.1-0.4-0.2-0.9-0.2c-0.6,0-0.8,0.4-0.8,0.7c0,0.4,0.3,0.6,0.9,0.9
			c0.8,0.3,1.1,0.7,1.1,1.3c0,0.7-0.5,1.3-1.6,1.3c-0.4,0-0.9-0.1-1.1-0.3L10.1,8.7z"/>
	</g>
</g>
</svg>
